0
SECTION
2
HEADER
9
$INSUNITS
70
4
9
$ACADVER
1
AC1014
9
$HANDSEED
5
FFFF
0
ENDSEC
0
SECTION
2
TABLES
0
TABLE
2
VPORT
5
8
100
AcDbSymbolTable
0
ENDTAB
0
TABLE
2
LTYPE
5
5
100
AcDbSymbolTable
0
LTYPE
5
14
100
AcDbSymbolTableRecord
100
AcDbLinetypeTableRecord
2
BYBLOCK
70
0
0
LTYPE
5
15
100
AcDbSymbolTableRecord
100
AcDbLinetypeTableRecord
2
BYLAYER
70
0
0
ENDTAB
0
TABLE
2
LAYER
5
2
100
AcDbSymbolTable
70
2
0
LAYER
5
50
100
AcDbSymbolTableRecord
100
AcDbLayerTableRecord
2
0
70
0
6
CONTINUOUS
0
ENDTAB
0
TABLE
2
STYLE
5
3
100
AcDbSymbolTable
70
1
0
STYLE
5
11
100
AcDbSymbolTableRecord
100
AcDbTextStyleTableRecord
2
STANDARD
70
0
0
ENDTAB
0
TABLE
2
VIEW
5
6
100
AcDbSymbolTable
70
0
0
ENDTAB
0
TABLE
2
UCS
5
7
100
AcDbSymbolTable
70
0
0
ENDTAB
0
TABLE
2
APPID
5
9
100
AcDbSymbolTable
70
2
0
APPID
5
12
100
AcDbSymbolTableRecord
100
AcDbRegAppTableRecord
2
ACAD
70
0
0
ENDTAB
0
TABLE
2
DIMSTYLE
5
A
100
AcDbSymbolTable
70
1
0
ENDTAB
0
TABLE
2
BLOCK_RECORD
5
1
100
AcDbSymbolTable
70
1
0
BLOCK_RECORD
5
1F
100
AcDbSymbolTableRecord
100
AcDbBlockTableRecord
2
*MODEL_SPACE
0
BLOCK_RECORD
5
1B
100
AcDbSymbolTableRecord
100
AcDbBlockTableRecord
2
*PAPER_SPACE
0
ENDTAB
0
ENDSEC
0
SECTION
2
BLOCKS
0
BLOCK
5
20
100
AcDbEntity
100
AcDbBlockBegin
2
*MODEL_SPACE
0
ENDBLK
5
21
100
AcDbEntity
100
AcDbBlockEnd
0
BLOCK
5
1C
100
AcDbEntity
100
AcDbBlockBegin
2
*PAPER_SPACE
0
ENDBLK
5
1D
100
AcDbEntity
100
AcDbBlockEnd
0
ENDSEC
0
SECTION
2
ENTITIES
0
LINE
5
100
100
AcDbEntity
8
0
100
AcDbLine
10
0.46668837640000005
20
7.1918325764000004
30
0
11
6.8306494071000001
21
13.555793607100002
31
0
0
LINE
5
101
100
AcDbEntity
8
0
100
AcDbLine
10
6.1235426259000016
20
21.677113950700001
30
0
11
-0.24041840480000021
21
15.313152920000002
31
0
0
LINE
5
102
100
AcDbEntity
8
0
100
AcDbLine
10
-0.94752518600000002
20
7.1918325764000004
30
0
11
-7.3114862167000005
21
13.555793607100002
31
0
0
LWPOLYLINE
5
103
100
AcDbEntity
8
0
100
AcDbPolyline
90
7
70
1
43
0.0
10
-0.24041840480000021
20
27.31315292
10
-6.60437943551345
20
33.677113950686554
42
0.99999999999999989
10
-8.018592997799999
20
32.262900388299997
10
-0.94752518598653923
20
25.191832576413461
42
0.41421356237309237
10
0.4666883763999996
20
25.1918325764
10
7.5377561882865489
20
32.262900388313447
42
0.99999999999999989
10
6.1235426259000016
20
33.677113950700004
0
LINE
5
104
100
AcDbEntity
8
0
100
AcDbLine
10
-5.8972726543
20
14.970007169500001
30
0
11
-0.24041840480000021
21
9.3131529200000003
31
0
0
LINE
5
105
100
AcDbEntity
8
0
100
AcDbLine
10
0.46668837640000005
20
13.191832576400003
30
0
11
7.5377561883000013
21
20.2629003883
31
0
0
LWPOLYLINE
5
106
100
AcDbEntity
8
0
100
AcDbPolyline
90
7
70
1
43
0.0
10
-0.24041840480000021
20
3.3131529199999998
10
3.2951155011134539
20
6.8486868258865483
42
-0.99999999999999989
10
4.7093290635000002
20
5.4344732635000002
10
0.46668837638654659
20
1.1918325764134534
42
-0.41421356237309492
10
-0.94752518600000002
20
1.1918325764
10
-5.1901658730865474
20
5.4344732635134552
42
-0.99999999999999989
10
-3.7759523107000001
20
6.8486868259000016
0
LWPOLYLINE
5
107
100
AcDbEntity
8
0
100
AcDbPolyline
90
44
70
1
43
0.0
10
15.227306017900002
20
40.942040739500001
10
16.544919094855441
20
39.047573371069014
42
-0.34061470228927276
10
16.365985784088551
20
35.389483588900845
42
0.25352081755138062
10
14.993574135069046
20
27.662395818067861
42
-0.20416419137797667
10
13.879956938304518
20
19.90210994273902
42
0.23086909719221291
10
10.336895606300001
20
-18.697136627300001
10
10.630830660240825
20
-19.478609709984763
42
0.081619397966034721
10
12.24270846386376
20
-22.292860374641819
42
-0.046514894012667792
10
13.799282676797722
20
-24.617341161266197
42
-0.12491827483289072
10
15.0095815952
20
-29.386109859400005
10
15.00958159519223
20
-32.913128546099834
42
0.14006991505687014
10
16.377663341254035
20
-38.122862222871021
42
-0.36685633514658023
10
16.7477275874
20
-41.985255277299999
10
15.543405699055135
20
-43.716832292068801
42
-0.41421356237309548
10
11.367570577600002
20
-44.466766315000001
10
9.0466310459517274
20
-42.852539367269394
42
-0.2455364056303958
10
7.7595815952000002
20
-40.3896547951
10
7.7595815951999985
20
-29.181041340300006
42
0.99999999999999989
10
-8.2404184047999998
20
-29.181041340300006
10
-8.2404184047999518
20
-40.3896547951
42
-0.24553640562314205
10
-9.5274678554999994
20
-42.852539367199995
10
-11.848407387244356
20
-44.466766314964296
42
-0.41421356237309537
10
-16.024242508664294
20
-43.716832292055649
10
-17.228564396964277
20
-41.985255277255639
42
-0.36685633514431903
10
-16.858500150833944
20
-38.122862222902967
42
0.14006991505751462
10
-15.49041840479147
20
-32.913128546092267
10
-15.490418404800202
20
-29.386109859400005
42
-0.12491827483289061
10
-14.28011948634702
20
-24.617341161293744
42
-0.046514894012668458
10
-12.72354527349945
20
-22.292860374612772
42
0.081619397967722704
10
-11.111667469816348
20
-19.478609709922303
10
-10.817732415929227
20
-18.697136627288923
42
0.2308690971922131
10
-14.360793747855855
20
19.902109942768572
42
-0.20416419137545341
10
-15.474410944598102
20
27.662395818029037
42
0.24623233218857227
10
-17.162922274919573
20
35.122261313076095
42
-0.34061470229458801
10
-17.341855585600001
20
38.780351095299999
10
-16.02424250862251
20
40.674818463815654
42
-0.4142135623704406
10
-11.848407387187434
20
41.424752486665675
42
0.03868022780913432
10
-11.270910629956983
20
41.120738384289922
42
0.022475685158981757
10
-11.102862590318722
20
41.057042004664488
10
-3.7847239404032651
20
38.283198652442003
42
0.18316045070633696
10
3.3038871308032611
20
38.283198652442003
10
10.622025780728332
20
41.057042004613749
42
0.022475685159382683
10
10.790073820363551
20
41.120738384265884
42
0.038680227814498903
10
11.367570577687838
20
41.424752486656033
42
-0.44577847111359897
0
LINE
5
108
100
AcDbEntity
8
0
100
AcDbLine
10
0.46668837640000005
20
19.1918325764
30
0
11
8.2448629694999997
21
26.970007169500001
31
0
0
LINE
5
109
100
AcDbEntity
8
0
100
AcDbLine
10
-0.94752518600000002
20
19.1918325764
30
0
11
-8.7256997789999993
21
26.970007169500001
31
0
0
LINE
5
110
100
AcDbEntity
8
0
100
AcDbLine
10
5.4164358447000005
20
14.970007169500001
30
0
11
-0.24041840480000021
21
9.3131529200000003
31
0
0
LINE
5
111
100
AcDbEntity
8
0
100
AcDbLine
10
-6.6043794354999994
20
21.677113950700001
30
0
11
-0.24041840480000021
21
15.313152920000002
31
0
0
CIRCLE
5
112
100
AcDbEntity
8
0
100
AcDbCircle
10
12.0095815952
20
-40.040953185900001
30
0
40
1.4999999999999933
0
CIRCLE
5
113
100
AcDbEntity
8
0
100
AcDbCircle
10
-12.490418404800002
20
-40.040953185900001
30
0
40
1.4999999999999933
0
CIRCLE
5
114
100
AcDbEntity
8
0
100
AcDbCircle
10
12.0095815952
20
36.998939357600008
30
0
40
1.4999999999999858
0
LINE
5
115
100
AcDbEntity
8
0
100
AcDbLine
10
-0.94752518600000002
20
13.191832576400003
30
0
11
-8.018592997799999
21
20.2629003883
31
0
0
LINE
5
116
100
AcDbEntity
8
0
100
AcDbLine
10
-7.3114862167000005
20
28.384220731900001
30
0
11
-0.24041840480000021
21
21.31315292
31
0
0
ARC
5
117
100
AcDbEntity
8
0
100
AcDbCircle
10
7.5377561883000013
20
27.677113950700001
30
0
40
1.0000000000000027
100
AcDbArc
50
-45.00000000000005
51
134.99999999999997
0
ARC
5
118
100
AcDbEntity
8
0
100
AcDbCircle
10
-0.24041840480000004
20
13.8989393576
30
0
40
0.99999999999998646
100
AcDbArc
50
224.99999999999986
51
315.00000000000017
0
ARC
5
119
100
AcDbEntity
8
0
100
AcDbCircle
10
-6.6043794354999994
20
14.2629003883
30
0
40
0.99999999999999412
100
AcDbArc
50
45.000000000000028
51
224.99999999999989
0
ARC
5
120
100
AcDbEntity
8
0
100
AcDbCircle
10
-0.24041840480000004
20
19.8989393576
30
0
40
0.99999999999996325
100
AcDbArc
50
225
51
315
0
ARC
5
121
100
AcDbEntity
8
0
100
AcDbCircle
10
-7.3114862167000005
20
20.970007169500001
30
0
40
1.0000000000000036
100
AcDbArc
50
44.999999999999964
51
225.00000000405149
0
ARC
5
122
100
AcDbEntity
8
0
100
AcDbCircle
10
-8.018592997799999
20
27.677113950700001
30
0
40
1.0000000000000051
100
AcDbArc
50
45.000000004051486
51
225
0
ARC
5
123
100
AcDbEntity
8
0
100
AcDbCircle
10
6.8306494071000001
20
20.970007169500001
30
0
40
0.99999999999999878
100
AcDbArc
50
-44.99999999999995
51
134.99999999999994
0
ARC
5
124
100
AcDbEntity
8
0
100
AcDbCircle
10
-0.24041840480000004
20
7.8989393575999998
30
0
40
1.0000000000001221
100
AcDbArc
50
224.99999999999997
51
315.00000000000006
0
LINE
5
125
100
AcDbEntity
8
0
100
AcDbLine
10
6.8306494071134525
20
28.38422073188655
30
0
11
-0.24041840480000021
21
21.31315292
31
0
0
CIRCLE
5
126
100
AcDbEntity
8
0
100
AcDbCircle
10
-12.490418404800002
20
36.998939357600008
30
0
40
1.4999999999999933
0
ARC
5
127
100
AcDbEntity
8
0
100
AcDbCircle
10
6.1235426259000016
20
14.2629003883
30
0
40
0.99999999999999178
100
AcDbArc
50
-45
51
135.00000000000006
0
ENDSEC
0
SECTION
2
OBJECTS
0
DICTIONARY
5
C
100
AcDbDictionary
3
ACAD_GROUP
350
D
3
ACAD_MLINESTYLE
350
17
0
DICTIONARY
5
D
100
AcDbDictionary
0
DICTIONARY
5
1A
330
C
100
AcDbDictionary
0
DICTIONARY
5
17
100
AcDbDictionary
0
ENDSEC
0
EOF
