0
SECTION
2
HEADER
9
$INSUNITS
70
4
9
$ACADVER
1
AC1014
9
$HANDSEED
5
FFFF
0
ENDSEC
0
SECTION
2
TABLES
0
TABLE
2
VPORT
5
8
100
AcDbSymbolTable
0
ENDTAB
0
TABLE
2
LTYPE
5
5
100
AcDbSymbolTable
0
LTYPE
5
14
100
AcDbSymbolTableRecord
100
AcDbLinetypeTableRecord
2
BYBLOCK
70
0
0
LTYPE
5
15
100
AcDbSymbolTableRecord
100
AcDbLinetypeTableRecord
2
BYLAYER
70
0
0
ENDTAB
0
TABLE
2
LAYER
5
2
100
AcDbSymbolTable
70
2
0
LAYER
5
50
100
AcDbSymbolTableRecord
100
AcDbLayerTableRecord
2
0
70
0
6
CONTINUOUS
0
ENDTAB
0
TABLE
2
STYLE
5
3
100
AcDbSymbolTable
70
1
0
STYLE
5
11
100
AcDbSymbolTableRecord
100
AcDbTextStyleTableRecord
2
STANDARD
70
0
0
ENDTAB
0
TABLE
2
VIEW
5
6
100
AcDbSymbolTable
70
0
0
ENDTAB
0
TABLE
2
UCS
5
7
100
AcDbSymbolTable
70
0
0
ENDTAB
0
TABLE
2
APPID
5
9
100
AcDbSymbolTable
70
2
0
APPID
5
12
100
AcDbSymbolTableRecord
100
AcDbRegAppTableRecord
2
ACAD
70
0
0
ENDTAB
0
TABLE
2
DIMSTYLE
5
A
100
AcDbSymbolTable
70
1
0
ENDTAB
0
TABLE
2
BLOCK_RECORD
5
1
100
AcDbSymbolTable
70
1
0
BLOCK_RECORD
5
1F
100
AcDbSymbolTableRecord
100
AcDbBlockTableRecord
2
*MODEL_SPACE
0
BLOCK_RECORD
5
1B
100
AcDbSymbolTableRecord
100
AcDbBlockTableRecord
2
*PAPER_SPACE
0
ENDTAB
0
ENDSEC
0
SECTION
2
BLOCKS
0
BLOCK
5
20
100
AcDbEntity
100
AcDbBlockBegin
2
*MODEL_SPACE
0
ENDBLK
5
21
100
AcDbEntity
100
AcDbBlockEnd
0
BLOCK
5
1C
100
AcDbEntity
100
AcDbBlockBegin
2
*PAPER_SPACE
0
ENDBLK
5
1D
100
AcDbEntity
100
AcDbBlockEnd
0
ENDSEC
0
SECTION
2
ENTITIES
0
LWPOLYLINE
5
100
100
AcDbEntity
8
0
100
AcDbPolyline
90
32
70
1
43
0.0
10
-45.352936269899999
20
18.676467955999996
42
-0.77133897556004438
10
-43.999640374750363
20
22.300935561551249
10
-36.513585625599291
20
21.545371167797519
42
0.58844766666908688
10
-32.520873783581109
20
27.287103488409279
10
-35.835143182600007
20
34.041917446699998
42
-0.77133897555433861
10
-32.908465568332694
20
36.572279741952357
10
-24.388923766800001
20
30.729520004000008
42
-0.16994933045105479
10
-23.216390905448648
20
29.131379089085144
10
-22.760288117900007
20
27.637343682199997
42
0.3900957064588117
10
-18.923443492179352
20
25.194944733323087
42
-0.40909374471380056
10
-12.999591794250936
20
21.145539785805259
42
-0.09994361037063014
10
-13.007945096961516
20
19.364366235454824
42
0.30839194284879134
10
-10.411161305751646
20
13.124517788409907
42
0.012081643699036138
10
-10.082495399381184
20
12.921198676532173
10
11.567166900699707
20
-2.1362674130997772
42
0.021617644997272801
10
31.092738864070117
20
-14.499875445971675
10
43.0323605321
20
-22.8039517821
42
-0.24553640560358617
10
43.461377015600029
20
-23.624913306100002
10
43.461377015600021
20
-30.670035332900003
42
-0.41421356237309503
10
42.461377015600014
20
-31.670035332900003
10
37.431848912500001
20
-31.670035332900039
42
-0.15308470812590072
10
35.719099706988636
20
-31.13305992859943
10
24.804223634982296
20
-23.543023940659165
42
0.02161760672799793
10
6.4169142759241797
20
-9.5426050414656398
10
-15.235209596300018
20
5.5113211762000152
42
0.01198495344879582
10
-15.537737594220783
20
5.7468128399851928
42
0.30845844298432185
10
-22.292406147762016
20
6.010869959785782
42
-0.09914505407276239
10
-23.945311432767248
20
5.3855384891891243
42
-0.40996983767271189
10
-29.818896005987344
20
9.5267036176035838
42
0.39009570646409314
10
-33.444172753003969
20
12.273348446341359
10
-35.003535811199995
20
12.180836813199999
42
-0.16994933045482868
10
-36.909888706416695
20
12.723705428776322
0
LINE
5
101
100
AcDbEntity
8
0
100
AcDbLine
10
-29.430022605800001
20
27.767786894800004
30
0
11
-29.076128185789585
21
25.799346207501884
31
0
0
ARC
5
102
100
AcDbEntity
8
0
100
AcDbCircle
10
-27.599797670294798
20
26.064767022500945
30
0
40
1.5000000000052907
100
AcDbArc
50
-169.80800634329293
51
10.191993656706906
0
LWPOLYLINE
5
103
100
AcDbEntity
8
0
100
AcDbPolyline
90
4
70
1
43
0.0
10
-23.115364584600005
20
9.5984419953
10
-23.469259004714097
20
11.566882682618553
42
0.99999999999999989
10
-26.421920035686451
20
11.03604105258446
10
-26.068025615589576
20
9.0676003653018782
42
0.99999999999999989
0
CIRCLE
5
104
100
AcDbEntity
8
0
100
AcDbCircle
10
31.211377015600004
20
-21.2981123665
30
0
40
1.5000000000000047
0
LWPOLYLINE
5
105
100
AcDbEntity
8
0
100
AcDbPolyline
90
4
70
1
43
0.0
10
-17.188021145499999
20
21.840443455700004
10
-19.156461832815541
20
21.486549035686451
42
0.99999999999999989
10
-18.625620202801876
20
18.533888004710416
10
-16.657179515481452
20
18.887782424714082
42
0.99999999999999989
0
LINE
5
106
100
AcDbEntity
8
0
100
AcDbLine
10
-35.357366045000006
20
15.525785434500001
30
0
11
-33.388925357701879
21
15.879679854510421
31
0
0
CIRCLE
5
107
100
AcDbEntity
8
0
100
AcDbCircle
10
39.420992256200002
20
-27.007947530700001
30
0
40
1.4999999999999933
0
LINE
5
108
100
AcDbEntity
8
0
100
AcDbLine
10
-26.123467154800011
20
26.330187837500002
30
0
11
-26.477361574910432
21
28.298628524798133
31
0
0
CIRCLE
5
109
100
AcDbEntity
8
0
100
AcDbCircle
10
-26.2726935952
20
18.683114445099999
30
0
40
4
0
ARC
5
110
100
AcDbEntity
8
0
100
AcDbCircle
10
-27.953692090355219
20
28.033207709799065
30
0
40
1.4999999999560769
100
AcDbArc
50
10.191993657045295
51
190.191993657045
0
LINE
5
111
100
AcDbEntity
8
0
100
AcDbLine
10
-33.919766987700001
20
18.832340885500006
30
0
11
-35.888207675015529
21
18.478446465486453
31
0
0
ARC
5
112
100
AcDbEntity
8
0
100
AcDbCircle
10
-35.622786860007771
20
17.002115949993225
30
0
40
1.5000000000052938
100
AcDbArc
50
100.19199365704458
51
280.19199365704486
0
ARC
5
113
100
AcDbEntity
8
0
100
AcDbCircle
10
-33.65434617270094
20
17.356010370005212
30
0
40
1.5000000000052951
100
AcDbArc
50
-79.808006343292973
51
100.19199365670701
0
ENDSEC
0
SECTION
2
OBJECTS
0
DICTIONARY
5
C
100
AcDbDictionary
3
ACAD_GROUP
350
D
3
ACAD_MLINESTYLE
350
17
0
DICTIONARY
5
D
100
AcDbDictionary
0
DICTIONARY
5
1A
330
C
100
AcDbDictionary
0
DICTIONARY
5
17
100
AcDbDictionary
0
ENDSEC
0
EOF
