0
SECTION
2
HEADER
9
$INSUNITS
70
4
9
$ACADVER
1
AC1014
9
$HANDSEED
5
FFFF
0
ENDSEC
0
SECTION
2
TABLES
0
TABLE
2
VPORT
5
8
100
AcDbSymbolTable
0
ENDTAB
0
TABLE
2
LTYPE
5
5
100
AcDbSymbolTable
0
LTYPE
5
14
100
AcDbSymbolTableRecord
100
AcDbLinetypeTableRecord
2
BYBLOCK
70
0
0
LTYPE
5
15
100
AcDbSymbolTableRecord
100
AcDbLinetypeTableRecord
2
BYLAYER
70
0
0
ENDTAB
0
TABLE
2
LAYER
5
2
100
AcDbSymbolTable
70
2
0
LAYER
5
50
100
AcDbSymbolTableRecord
100
AcDbLayerTableRecord
2
0
70
0
6
CONTINUOUS
0
ENDTAB
0
TABLE
2
STYLE
5
3
100
AcDbSymbolTable
70
1
0
STYLE
5
11
100
AcDbSymbolTableRecord
100
AcDbTextStyleTableRecord
2
STANDARD
70
0
0
ENDTAB
0
TABLE
2
VIEW
5
6
100
AcDbSymbolTable
70
0
0
ENDTAB
0
TABLE
2
UCS
5
7
100
AcDbSymbolTable
70
0
0
ENDTAB
0
TABLE
2
APPID
5
9
100
AcDbSymbolTable
70
2
0
APPID
5
12
100
AcDbSymbolTableRecord
100
AcDbRegAppTableRecord
2
ACAD
70
0
0
ENDTAB
0
TABLE
2
DIMSTYLE
5
A
100
AcDbSymbolTable
70
1
0
ENDTAB
0
TABLE
2
BLOCK_RECORD
5
1
100
AcDbSymbolTable
70
1
0
BLOCK_RECORD
5
1F
100
AcDbSymbolTableRecord
100
AcDbBlockTableRecord
2
*MODEL_SPACE
0
BLOCK_RECORD
5
1B
100
AcDbSymbolTableRecord
100
AcDbBlockTableRecord
2
*PAPER_SPACE
0
ENDTAB
0
ENDSEC
0
SECTION
2
BLOCKS
0
BLOCK
5
20
100
AcDbEntity
100
AcDbBlockBegin
2
*MODEL_SPACE
0
ENDBLK
5
21
100
AcDbEntity
100
AcDbBlockEnd
0
BLOCK
5
1C
100
AcDbEntity
100
AcDbBlockBegin
2
*PAPER_SPACE
0
ENDBLK
5
1D
100
AcDbEntity
100
AcDbBlockEnd
0
ENDSEC
0
SECTION
2
ENTITIES
0
CIRCLE
5
100
100
AcDbEntity
8
0
100
AcDbCircle
10
10.250000000000002
20
-3.3965414785000005
30
0
40
1.5000000000000011
0
CIRCLE
5
101
100
AcDbEntity
8
0
100
AcDbCircle
10
4.0403847595000002
20
32.163569629099996
30
0
40
1.5000000000000044
0
CIRCLE
5
102
100
AcDbEntity
8
0
100
AcDbCircle
10
4.0403903222000004
20
-33.456634867399998
30
0
40
1.5000160307272381
0
CIRCLE
5
103
100
AcDbEntity
8
0
100
AcDbCircle
10
-12.25
20
37.873404793299997
30
0
40
1.4999999999999933
0
LWPOLYLINE
5
104
100
AcDbEntity
8
0
100
AcDbPolyline
90
7
70
1
43
0.0
10
5.4800775541999993
20
-12.753756753600001
10
0.88388347653318089
20
-17.349950831333182
42
-0.41421356240623208
10
-0.88388347650000032
20
-17.349950831300003
10
-5.4800775542331825
20
-12.753756753533183
42
-0.99999999999999989
10
-3.7123106012
20
-10.985989800700001
10
0
20
-14.698300401900003
10
3.7123106012168163
20
-10.985989800616816
42
-0.99999999999999989
0
LWPOLYLINE
5
105
100
AcDbEntity
8
0
100
AcDbPolyline
90
48
70
1
43
0.0
10
15.391918977500001
20
-48.660210694300012
10
13.126963041903981
20
-47.084920664894277
42
0.066051722804043977
10
10.788549645690498
20
-45.879998463812015
42
0.17365449854142698
10
-10.788549645676383
20
-45.879998463846988
42
0.066051722804081406
10
-13.126963041900002
20
-47.084920664899997
10
-15.39191897748961
20
-48.660210694314955
42
-0.41421356237432883
10
-18.175809058219762
20
-48.160254677803479
10
-22.752258552614933
20
-41.58022417401039
42
-0.41201003866644847
10
-22.264632348400003
20
-38.8049786001
10
-19.679796272740568
20
-36.978181731569578
42
0.10596189844542123
10
-16.839898271523218
20
-33.895497924941466
42
0.12000307343717671
10
-15.265483928851333
20
-28.703549531317396
42
0.013891885672164431
10
-15.2500510549
20
-28.148195713200007
10
-15.250050905200725
20
-19.070812184318019
42
0.044373119181388219
10
-15.406944072978066
20
-17.306365323389205
42
0.028975365618134019
10
-15.731048388798428
20
-15.954517113416459
42
0.12855804967602227
10
-18.370669383303245
20
-11.639079041052538
42
-0.3333506534482909
10
-19.237235621550926
20
-6.3078803977499938
42
-0.075617848320711056
10
-18.881239883457386
20
-5.8230367936641878
42
0.4002712074005253
10
-18.319453734875857
20
18.799605117960773
42
-0.34823899360145422
10
-19.219527186959603
20
24.362846765040359
42
0.37940102439426582
10
-22.05553474866262
20
37.322576592861978
10
-22.305550505789462
20
37.504910062514455
42
-0.4076650408265885
10
-22.769001328600002
20
40.262798880000005
10
-18.175681174909524
20
46.867086053737097
42
-0.41421356237309459
10
-15.391791093962912
20
47.367042069009528
10
-12.136758288224801
20
45.103147814439488
42
0.19699617922350657
10
12.136758288199999
20
45.103147814499998
10
15.391791093916042
20
47.367042068976929
42
-0.41421356238511925
10
18.175681174899999
20
46.8670860537
10
22.769001328623808
20
40.262798880016561
42
-0.4076650408265885
10
22.305550505799999
20
37.504910062500002
10
22.055534748592237
20
37.322576592810663
42
0.37940102439177481
10
19.219527186923166
20
24.362846765019981
42
-0.34823899360145749
10
18.319453734911558
20
18.799605117921601
42
0.40027120740029054
10
18.88123988347089
20
-5.8230367936303118
42
-0.075617848321571035
10
19.237235621564857
20
-6.3078803977341158
42
-0.33335065344982295
10
18.370669383254963
20
-11.639079041027196
42
0.12855804967553858
10
15.731048388828512
20
-15.954517113423652
42
0.028974637745434444
10
15.40695023470608
20
-17.306330949988642
42
0.044373105411102093
10
15.250050905200002
20
-19.070805146600001
10
15.250051057040025
20
-28.148191723099998
42
0.013891792249334499
10
15.265482757426112
20
-28.703528470751735
42
0.12000353998990154
10
16.839898271510631
20
-33.895497924969142
42
0.10596189844665127
10
19.679796272800001
20
-36.978181731600003
10
22.264632348386137
20
-38.804978600119611
42
-0.41201003866644847
10
22.752258552600001
20
-41.580224174000008
10
18.175809058214927
20
-48.160254677810386
42
-0.41421356237309365
0
CIRCLE
5
106
100
AcDbEntity
8
0
100
AcDbCircle
10
-15.250050905200002
20
-8.3958064147000009
30
0
40
1.5007862723535403
0
CIRCLE
5
107
100
AcDbEntity
8
0
100
AcDbCircle
10
-4.0403863514999996
20
-33.4566504278
30
0
40
1.5000000003307934
0
LWPOLYLINE
5
108
100
AcDbEntity
8
0
100
AcDbPolyline
90
7
70
1
43
0.0
10
0
20
17.123253011999999
10
-6.1861705666119926
20
23.30942357858801
42
0.99999999999999989
10
-7.9559650571380089
20
21.539629088162002
10
-0.88489724523800239
20
14.468561276261999
42
0.4142135623730957
10
0.88489724520000035
20
14.468561276300003
10
7.9559650570880081
20
21.539629088111994
42
0.99999999999999989
10
6.1861705666619944
20
23.309423578638015
0
CIRCLE
5
109
100
AcDbEntity
8
0
100
AcDbCircle
10
12.25
20
37.873404793299997
30
0
40
1.4999999999999933
0
LWPOLYLINE
5
110
100
AcDbEntity
8
0
100
AcDbPolyline
90
7
70
1
43
0.0
10
2.2980970388168154
20
-5.1222181506168152
42
-0.99999999999999989
10
4.0658639917831856
20
-6.8899851035831876
10
0.88388347648318422
20
-10.071965618883185
42
-0.41421356237309509
10
-0.88388347648318322
20
-10.071965618883185
10
-4.0658639917831847
20
-6.8899851035831858
42
-0.99999999999999989
10
-2.2980970388168158
20
-5.1222181506168161
10
0
20
-7.420315189500001
0
CIRCLE
5
111
100
AcDbEntity
8
0
100
AcDbCircle
10
15.250050905200002
20
-8.3958064147000009
30
0
40
1.4999999968508784
0
CIRCLE
5
112
100
AcDbEntity
8
0
100
AcDbCircle
10
15.259986057599999
20
22.149026505199998
30
0
40
1.4999999999886102
0
CIRCLE
5
113
100
AcDbEntity
8
0
100
AcDbCircle
10
-12.25
20
-39.1664877503
30
0
40
1.5000000000000144
0
CIRCLE
5
114
100
AcDbEntity
8
0
100
AcDbCircle
10
-10.250000000000002
20
-3.3965414785000005
30
0
40
1.5000000000000044
0
CIRCLE
5
115
100
AcDbEntity
8
0
100
AcDbCircle
10
10.250000000000002
20
17.103458521500002
30
0
40
1.4999999999999911
0
CIRCLE
5
116
100
AcDbEntity
8
0
100
AcDbCircle
10
-4.0403847595000002
20
32.163569629099996
30
0
40
1.4999999999949731
0
LWPOLYLINE
5
117
100
AcDbEntity
8
0
100
AcDbPolyline
90
12
70
1
43
0.0
10
3.3587572106168171
20
11.979982685083181
42
-0.99999999999999989
10
5.1265241635831824
20
10.212215732116816
10
1.7677669530000006
20
6.8534585215000003
10
5.1265241635831815
20
3.4947013108831819
42
-0.99999999999999989
10
3.3587572106168184
20
1.7269343579168188
10
0
20
5.0856915685000006
10
-3.3587572106168171
20
1.7269343579168179
42
-0.99999999999999989
10
-5.1265241635831824
20
3.4947013108831833
10
-1.7677669530000006
20
6.8534585215000003
10
-5.1265241635831824
20
10.212215732116816
42
-0.99999999999999989
10
-3.3587572106000003
20
11.9799826851
10
0
20
8.621225474500001
0
CIRCLE
5
118
100
AcDbEntity
8
0
100
AcDbCircle
10
-15.259986057599999
20
22.149026505199998
30
0
40
1.5364045341826802
0
CIRCLE
5
119
100
AcDbEntity
8
0
100
AcDbCircle
10
-10.250000000000002
20
17.103458521500002
30
0
40
1.4999999999999911
0
CIRCLE
5
120
100
AcDbEntity
8
0
100
AcDbCircle
10
12.25
20
-39.1664877503
30
0
40
1.5000000000000144
0
LWPOLYLINE
5
121
100
AcDbEntity
8
0
100
AcDbPolyline
90
7
70
1
43
0.0
10
0
20
-21.698300401899999
10
-5.1265241636168142
20
-16.571776238316815
42
0.99999999999999989
10
-6.8942911165831848
20
-18.339543191283184
10
-0.88388347648311616
20
-24.349950831383115
42
0.41421356237309503
10
0.88388347648311605
20
-24.349950831383115
10
6.8942911165831831
20
-18.339543191283187
42
0.99999999999999989
10
5.1265241636168142
20
-16.571776238316815
0
LWPOLYLINE
5
122
100
AcDbEntity
8
0
100
AcDbPolyline
90
7
70
1
43
0.0
10
4.4194173823999998
20
24.005108951
10
0.88388347648318477
20
20.469575045016811
42
-0.41421356237309426
10
-0.8838834764831871
20
20.469575045016818
10
-4.4194173823831822
20
24.005108950916817
42
-0.99999999999999989
10
-2.6516504294168186
20
25.772875903883183
10
0
20
23.121225474500001
10
2.6516504293668186
20
25.772875903833182
42
-0.99999999999999989
0
ENDSEC
0
SECTION
2
OBJECTS
0
DICTIONARY
5
C
100
AcDbDictionary
3
ACAD_GROUP
350
D
3
ACAD_MLINESTYLE
350
17
0
DICTIONARY
5
D
100
AcDbDictionary
0
DICTIONARY
5
1A
330
C
100
AcDbDictionary
0
DICTIONARY
5
17
100
AcDbDictionary
0
ENDSEC
0
EOF
